<?xml version="1.0" encoding="UTF-8" standalone="no"?>
<svg xmlns:ffdec="https://www.free-decompiler.com/flash" xmlns:xlink="http://www.w3.org/1999/xlink" ffdec:objectType="frame" height="135.45px" width="135.3px" xmlns="http://www.w3.org/2000/svg">
  <g transform="matrix(1.0, 0.0, 0.0, 1.0, 2.6, 2.75)">
    <use ffdec:characterId="631" height="135.45" transform="matrix(1.0, 0.0, 0.0, 1.0, 0.0, 0.0)" width="135.3" xlink:href="#sprite0"/>
    <use ffdec:characterId="694" height="126.85" transform="matrix(1.0, 0.0, 0.0, 1.0, 0.0, 0.0)" width="121.25" xlink:href="#shape2"/>
  </g>
  <defs>
    <g id="sprite0">
      <use ffdec:characterId="628" height="130.0" transform="matrix(1.0, 0.0, 0.0, 1.0, 0.0, 0.0)" width="130.0" xlink:href="#shape0"/>
      <use ffdec:characterId="630" height="19.2" transform="matrix(1.0, 0.0, 0.0, 1.0, 0.0, 0.0)" width="19.4" xlink:href="#sprite1"/>
      <use ffdec:characterId="630" height="19.2" transform="matrix(0.0, 1.0, -1.0, 0.0, 130.0, -0.15)" width="19.4" xlink:href="#sprite1"/>
      <use ffdec:characterId="630" height="19.2" transform="matrix(0.0, -1.0, 1.0, 0.0, 0.15, 129.6)" width="19.4" xlink:href="#sprite1"/>
      <use ffdec:characterId="630" height="19.2" transform="matrix(-1.0, 0.0, 0.0, -1.0, 130.0, 130.0)" width="19.4" xlink:href="#sprite1"/>
    </g>
    <g id="shape0">
      <path d="M130.0 130.0 L0.0 130.0 0.0 0.0 130.0 0.0 130.0 130.0" fill="#ffffff" fill-opacity="0.011764706" fill-rule="evenodd" stroke="none"/>
      <path d="M16.8 5.3 L16.8 5.35 16.75 5.35 16.8 5.3" fill="#ffffff" fill-opacity="0.70980394" fill-rule="evenodd" stroke="none"/>
    </g>
    <g id="sprite1">
      <use ffdec:characterId="629" height="19.2" transform="matrix(1.0, 0.0, 0.0, 1.0, 0.0, 0.0)" width="19.4" xlink:href="#shape1"/>
    </g>
    <g id="shape1">
      <path d="M16.8 5.3 L16.75 5.35 5.55 5.35 5.55 16.5 2.65 16.5 2.65 2.65 16.8 2.65 16.8 5.3" fill="#ffffff" fill-opacity="0.011764706" fill-rule="evenodd" stroke="none"/>
      <path d="M14.2 -2.7 L14.2 -0.05 0.05 -0.05 0.05 13.8 -2.6 13.8 -2.6 -2.7 14.2 -2.7" fill="#ffffff" fill-opacity="0.007843138" fill-rule="evenodd" stroke="none"/>
    </g>
    <g id="shape2">
      <path d="M88.5 13.95 Q88.25 18.9 80.45 22.4 74.25 25.25 65.95 25.9 73.1 25.2 78.55 22.4 85.0 19.15 85.7 14.6 L85.75 14.3 85.75 14.0 85.75 13.95 Q85.5 9.0 78.55 5.45 L78.1 5.2 Q76.8 4.25 74.9 3.35 72.55 2.3 69.75 1.65 75.7 2.55 80.45 4.7 88.5 8.4 88.5 13.55 L88.5 13.95 M56.15 25.9 Q47.9 25.25 41.65 22.4 33.75 18.85 33.6 13.7 L33.6 13.55 Q33.6 8.4 41.65 4.7 46.4 2.55 52.3 1.65 49.6 2.3 47.2 3.35 45.3 4.25 44.0 5.2 L43.6 5.45 Q36.8 8.9 36.4 13.7 L36.4 13.95 36.35 14.3 36.45 14.45 Q37.0 19.1 43.6 22.4 49.0 25.2 56.15 25.9" fill="#ffffff" fill-opacity="0.9882353" fill-rule="evenodd" stroke="none"/>
      <path d="M88.5 13.95 L88.5 47.65 81.6 47.65 Q79.35 47.65 77.6 48.8 76.8 49.3 76.15 49.95 73.9 52.2 73.9 55.4 L73.9 58.8 Q73.9 62.0 76.15 64.25 L77.6 65.4 Q79.35 66.5 81.6 66.5 L88.5 66.5 88.5 74.15 88.5 74.3 Q88.3 79.3 80.45 82.85 74.05 85.8 65.45 86.4 L65.45 45.55 65.45 45.2 Q65.45 39.65 56.9 35.7 L53.4 34.35 48.3 33.0 41.45 32.05 37.35 31.85 36.2 31.8 33.6 31.9 33.6 13.7 Q33.75 18.85 41.65 22.4 47.9 25.25 56.15 25.9 L65.95 25.9 Q74.25 25.25 80.45 22.4 88.25 18.9 88.5 13.95 M69.75 1.65 Q72.55 2.3 74.9 3.35 76.8 4.25 78.1 5.2 80.65 7.25 80.65 9.7 80.65 13.4 74.9 16.0 69.2 18.65 61.05 18.65 52.9 18.65 47.2 16.0 41.45 13.4 41.45 9.7 41.45 7.25 44.0 5.2 45.3 4.25 47.2 3.35 49.6 2.3 52.3 1.65 L61.05 1.05 69.75 1.65 M107.5 53.65 Q109.15 55.3 109.15 57.6 109.15 59.85 107.5 61.5 105.9 63.15 103.6 63.15 L83.8 63.15 Q81.5 63.15 79.85 61.5 78.25 59.85 78.25 57.6 78.25 55.3 79.85 53.65 81.5 52.05 83.8 52.05 L103.6 52.05 Q105.9 52.05 107.5 53.65" fill="#ffffff" fill-rule="evenodd" stroke="none"/>
      <path d="M33.6 31.9 L36.2 31.8 37.35 31.85 41.45 32.05 41.45 62.15 48.7 64.1 48.7 33.15 48.3 33.0 53.4 34.35 56.9 35.7 Q65.45 39.65 65.45 45.2 L65.45 45.55 65.45 86.4 61.05 86.55 50.95 85.7 49.05 85.35 Q45.05 84.4 41.65 82.85 34.1 79.4 33.65 74.6 L33.6 74.2 33.6 31.9" fill="#ffffff" fill-opacity="0.011764706" fill-rule="evenodd" stroke="none"/>
      <path d="M15.5 41.7 L15.05 41.9 Q8.3 45.4 7.9 50.2 L7.9 50.45 7.85 50.8 7.95 50.95 Q8.5 55.6 15.05 58.9 20.5 61.7 27.6 62.4 19.4 61.75 13.15 58.9 5.2 55.3 5.1 50.2 L5.1 50.05 Q5.1 44.9 13.15 41.2 17.9 39.05 23.8 38.15 21.05 38.8 18.7 39.85 16.8 40.7 15.5 41.7 M37.45 62.4 Q44.6 61.7 50.0 58.9 56.5 55.65 57.2 51.1 L57.25 50.8 57.25 50.5 57.25 50.4 Q56.95 45.45 50.0 41.9 L49.6 41.7 Q48.3 40.7 46.4 39.85 44.0 38.8 41.25 38.15 47.2 39.05 51.95 41.2 59.95 44.9 59.95 50.05 L59.95 50.4 Q59.7 55.4 51.95 58.9 45.75 61.75 37.45 62.4" fill="#ffffff" fill-opacity="0.9882353" fill-rule="evenodd" stroke="none"/>
      <path d="M49.6 41.7 Q52.15 43.7 52.15 46.2 52.15 49.9 46.4 52.5 40.7 55.15 32.5 55.15 24.4 55.15 18.7 52.5 12.95 49.9 12.95 46.2 12.95 43.7 15.5 41.7 16.8 40.7 18.7 39.85 21.05 38.8 23.8 38.15 L32.5 37.55 41.25 38.15 Q44.0 38.8 46.4 39.85 48.3 40.7 49.6 41.7 M27.6 62.4 L37.45 62.4 Q45.75 61.75 51.95 58.9 59.7 55.4 59.95 50.4 L59.95 84.15 53.1 84.15 Q50.85 84.15 49.05 85.3 L47.65 86.45 Q45.35 88.7 45.35 91.9 L45.35 95.3 Q45.35 98.45 47.65 100.75 L49.05 101.9 Q50.85 103.0 53.1 103.0 L59.95 103.0 59.95 110.6 59.95 110.75 Q59.8 115.8 51.95 119.35 43.9 123.05 32.5 123.05 21.15 123.05 13.15 119.35 5.6 115.9 5.15 111.1 L5.1 110.7 5.1 50.2 Q5.2 55.3 13.15 58.9 19.4 61.75 27.6 62.4 M12.95 66.75 L12.95 98.65 20.2 100.6 20.2 69.65 12.95 66.75 M51.35 90.1 Q53.0 88.5 55.3 88.5 L75.1 88.5 Q77.4 88.5 79.0 90.1 80.65 91.75 80.65 94.1 80.65 96.35 79.0 98.0 77.4 99.65 75.1 99.65 L55.3 99.65 Q53.0 99.65 51.35 98.0 49.75 96.35 49.75 94.1 49.75 91.75 51.35 90.1" fill="#ffffff" fill-rule="evenodd" stroke="none"/>
      <path d="M108.1 39.25 L93.85 39.25 93.85 29.55 109.8 29.55 Q119.15 29.65 124.05 36.4 128.9 44.4 123.5 53.5 L76.0 121.95 Q72.25 128.75 66.1 127.75 59.9 126.7 61.9 121.95 L77.7 99.6 73.05 99.6 73.05 88.5 85.55 88.5 103.5 63.1 98.2 63.1 98.2 52.05 111.35 52.05 114.35 47.8 Q118.7 40.25 108.1 39.25" fill="#ffffff" fill-rule="evenodd" stroke="none"/>
    </g>
  </defs>
</svg>
