<?xml version="1.0" encoding="UTF-8" standalone="no"?>
<svg xmlns:ffdec="https://www.free-decompiler.com/flash" xmlns:xlink="http://www.w3.org/1999/xlink" ffdec:objectType="frame" height="191.35px" width="217.8px" xmlns="http://www.w3.org/2000/svg">
  <g transform="matrix(1.0, 0.0, 0.0, 1.0, 1.0, 1.0)">
    <use ffdec:characterId="626" height="106.35" id="icon_cargo" transform="matrix(1.0, 0.0, 0.0, 1.0, -1.0, 83.0)" width="103.8" xlink:href="#sprite0"/>
    <use ffdec:characterId="626" height="106.35" id="icon_cargo" transform="matrix(1.0, 0.0, 0.0, 1.0, 113.0, 84.0)" width="103.8" xlink:href="#sprite0"/>
    <use ffdec:characterId="626" height="106.35" id="icon_cargo" transform="matrix(1.0, 0.0, 0.0, 1.0, 57.0, -1.0)" width="103.8" xlink:href="#sprite0"/>
  </g>
  <defs>
    <g id="sprite0">
      <use ffdec:characterId="625" height="106.35" transform="matrix(1.0, 0.0, 0.0, 1.0, 0.0, 0.0)" width="103.8" xlink:href="#shape0"/>
    </g>
    <g id="shape0">
      <path d="M81.05 90.25 L81.05 41.3 Q69.05 34.6 57.05 27.85 L78.55 15.25 103.8 29.35 103.8 77.75 81.05 90.25 M51.05 31.35 L74.75 44.65 74.95 93.55 51.7 106.35 27.4 92.7 27.15 45.3 51.05 31.35 M72.1 11.65 L50.6 24.2 29.75 12.55 Q40.55 6.3 51.3 0.0 L72.1 11.65 M23.65 16.05 L44.6 27.75 21.25 41.4 21.25 89.2 0.0 77.25 0.0 29.8 23.65 16.05 M51.7 59.5 L52.1 59.25 51.7 59.05 51.7 59.5" fill="#ffffff" fill-rule="evenodd" stroke="none"/>
    </g>
  </defs>
</svg>
