<?xml version="1.0" encoding="UTF-8" standalone="no"?>
<svg xmlns:ffdec="https://www.free-decompiler.com/flash" xmlns:xlink="http://www.w3.org/1999/xlink" ffdec:objectType="frame" height="495.15px" width="471.7px" xmlns="http://www.w3.org/2000/svg">
  <g transform="matrix(1.0, 0.0, 0.0, 1.0, -21.9, -10.75)">
    <use ffdec:characterId="590" height="495.15" transform="matrix(1.0, 0.0, 0.0, 1.0, 0.0, 0.0)" width="471.7" xlink:href="#shape0"/>
  </g>
  <defs>
    <g id="shape0">
      <path d="M371.9 55.55 Q380.55 113.6 432.25 138.05 442.8 142.4 437.8 154.55 419.3 198.8 432.0 238.25 434.55 246.2 438.4 254.0 443.15 263.05 437.4 267.6 435.5 269.1 432.45 270.1 384.95 294.25 375.5 348.25 375.35 364.2 359.4 361.75 303.05 355.05 265.9 393.7 257.05 402.4 248.25 392.8 208.9 355.25 156.55 363.1 142.95 366.35 139.3 352.25 128.5 298.15 82.65 274.35 75.3 271.95 73.2 267.6 70.25 261.65 76.95 252.05 79.85 245.15 81.85 238.25 93.6 197.9 73.95 157.55 67.6 145.25 78.8 140.4 129.8 111.5 137.4 60.1 137.7 43.8 152.1 48.65 207.2 53.7 247.75 14.7 254.2 6.85 260.7 14.7 304.15 57.25 361.3 46.7 372.8 43.6 371.9 55.55 M366.95 238.25 Q371.75 222.45 371.75 204.65 371.75 158.2 338.9 125.35 306.1 92.55 259.65 92.55 213.2 92.55 180.35 125.35 147.55 158.2 147.55 204.65 147.55 222.45 152.4 238.25 157.15 253.9 166.65 267.6 172.6 276.15 180.35 283.9 213.2 316.75 259.65 316.75 306.1 316.75 338.9 283.9 346.7 276.15 352.65 267.6 362.15 253.9 366.95 238.25 M260.55 142.05 Q281.3 178.8 319.75 200.4 327.15 204.4 319.75 209.15 300.75 221.4 284.65 238.25 271.95 251.5 261.05 267.6 L260.15 268.95 Q255.25 276.8 251.2 268.95 L250.4 267.6 Q241.05 251.55 228.6 238.25 212.65 221.25 191.65 208.7 183.95 204.0 191.65 200.1 229.35 177.9 251.25 142.05 255.55 132.5 260.55 142.05" fill="#ffffff" fill-rule="evenodd" stroke="none"/>
      <path d="M390.05 365.75 Q395.6 333.95 412.95 311.4 L493.2 438.55 Q494.4 440.45 492.0 441.95 L421.3 435.25 390.65 505.75 Q389.05 506.3 388.15 504.85 L313.4 386.4 Q339.9 377.1 372.0 380.9 389.85 383.65 390.05 365.75 M144.5 382.4 Q175.75 377.7 202.85 387.45 L125.85 503.55 Q124.6 505.45 122.2 503.85 L93.25 438.3 23.45 438.35 Q21.1 436.75 22.35 434.9 L101.4 315.65 Q118.75 338.2 125.15 370.25 129.25 386.05 144.5 382.4" fill="#ffffff" fill-rule="evenodd" stroke="none"/>
    </g>
  </defs>
</svg>
