<?xml version="1.0" encoding="UTF-8" standalone="no"?>
<svg xmlns:ffdec="https://www.free-decompiler.com/flash" xmlns:xlink="http://www.w3.org/1999/xlink" ffdec:objectType="frame" height="347.75px" width="270.55px" xmlns="http://www.w3.org/2000/svg">
  <g transform="matrix(1.0, 0.0, 0.0, 1.0, 1.4, -0.65)">
    <use ffdec:characterId="1385" height="347.7" transform="matrix(1.0, 0.0, 0.0, 1.0, 10.8, 9.05)" width="136.0" xlink:href="#sprite0"/>
    <use ffdec:characterId="1385" height="347.7" transform="matrix(-1.0, 0.0, 0.0, 1.0, 256.95, 9.0)" width="136.0" xlink:href="#sprite0"/>
  </g>
  <defs>
    <g id="sprite0">
      <use ffdec:characterId="1384" height="347.7" transform="matrix(1.0, 0.0, 0.0, 1.0, 0.0, 0.0)" width="136.0" xlink:href="#shape0"/>
    </g>
    <g id="shape0">
      <path d="M123.3 -8.35 L123.3 302.7 111.5 302.7 99.4 296.35 93.05 330.55 85.05 330.55 Q83.0 330.9 81.75 333.1 L78.65 336.2 Q78.2 338.05 75.65 338.25 L53.45 339.35 Q49.2 339.5 47.8 334.35 L46.55 305.3 44.05 302.45 44.05 301.95 43.85 301.7 42.45 297.55 38.7 295.7 38.5 293.2 28.0 267.7 19.6 271.45 7.6 277.5 1.8 271.3 -12.2 231.5 -11.35 230.4 41.55 172.5 45.3 138.45 50.4 133.7 50.4 125.95 60.25 118.2 65.0 83.6 73.25 74.35 94.5 9.85 115.75 -5.55 123.3 -8.35" fill="#000000" fill-opacity="0.36078432" fill-rule="evenodd" stroke="none"/>
      <path d="M45.5 298.8 L44.4 275.65 80.65 273.95 81.75 297.1 45.5 298.8" fill="url(#gradient0)" fill-rule="evenodd" stroke="none"/>
      <path d="M53.0 316.8 L52.2 316.85 52.0 313.5 64.7 312.9 64.75 313.95 52.85 314.5 53.0 316.8 M53.3 323.55 L52.5 323.6 52.35 320.2 65.05 319.6 65.1 320.65 53.2 321.2 53.3 323.55 M65.4 327.25 L53.5 327.8 53.6 330.0 52.8 330.05 52.65 326.8 65.35 326.2 65.4 327.25" fill="#aaaaaa" fill-rule="evenodd" stroke="none"/>
      <path d="M78.25 302.9 L79.5 330.65 Q80.2 334.25 76.6 334.55 L54.9 335.6 Q50.75 335.75 50.95 331.1 L49.7 304.25 78.25 302.9 M64.75 313.95 L64.7 312.9 52.0 313.5 52.2 316.85 53.0 316.8 64.9 316.25 64.75 313.95 M65.1 320.65 L65.05 319.6 52.35 320.2 52.5 323.6 53.3 323.55 65.2 323.0 65.1 320.65 M65.4 327.25 L65.35 326.2 52.65 326.8 52.8 330.05 53.6 330.0 65.5 329.45 65.4 327.25" fill="url(#gradient1)" fill-rule="evenodd" stroke="none"/>
      <path d="M78.15 301.1 L78.25 302.9 49.7 304.25 49.6 302.45 78.15 301.1 M64.75 313.95 L64.9 316.25 53.0 316.8 52.85 314.5 64.75 313.95 M53.3 323.55 L53.2 321.2 65.1 320.65 65.2 323.0 53.3 323.55 M53.6 330.0 L53.5 327.8 65.4 327.25 65.5 329.45 53.6 330.0" fill="#2b2b2b" fill-rule="evenodd" stroke="none"/>
      <path d="M81.75 297.1 L78.15 301.1 49.6 302.45 45.5 298.8 81.75 297.1" fill="url(#gradient2)" fill-rule="evenodd" stroke="none"/>
      <path d="M63.6 124.65 L75.35 110.95 75.45 116.2 61.1 133.05 63.6 124.65" fill="#636363" fill-rule="evenodd" stroke="none"/>
      <path d="M63.6 124.65 L61.1 133.05 58.8 140.7 58.8 124.6 63.6 124.6 63.6 124.65" fill="#3a3a3a" fill-rule="evenodd" stroke="none"/>
      <path d="M61.1 133.05 L75.45 116.2 76.2 155.95 47.9 184.15 51.55 148.3 58.8 140.7 61.1 133.05" fill="#747474" fill-rule="evenodd" stroke="none"/>
      <path d="M52.7 137.25 L52.7 130.8 58.8 124.6 58.8 140.7 51.55 148.3 52.7 137.25" fill="url(#gradient3)" fill-rule="evenodd" stroke="none"/>
      <path d="M47.9 184.15 L43.7 188.3 48.35 142.3 52.7 137.25 51.55 148.3 47.9 184.15" fill="#505050" fill-rule="evenodd" stroke="none"/>
      <path d="M123.3 7.15 L123.3 18.75 107.95 24.0 107.95 11.9 123.3 7.15" fill="url(#gradient4)" fill-rule="evenodd" stroke="none"/>
      <path d="M123.3 18.75 L123.3 21.1 110.25 25.75 108.75 41.05 103.95 73.15 106.65 41.95 106.65 41.85 107.95 24.0 123.3 18.75" fill="#aeaeae" fill-rule="evenodd" stroke="none"/>
      <path d="M123.3 21.1 L123.3 36.0 108.75 41.05 110.25 25.75 123.3 21.1" fill="#d3d3d3" fill-rule="evenodd" stroke="none"/>
      <path d="M108.6 2.4 L123.3 -5.6 110.8 3.0 107.95 11.9 108.6 2.4" fill="#f2f2f2" fill-rule="evenodd" stroke="none"/>
      <path d="M123.3 36.0 L123.3 108.9 104.3 108.9 103.95 73.15 108.75 41.05 123.3 36.0 M123.3 -5.6 L123.3 7.15 107.95 11.9 110.8 3.0 123.3 -5.6 M77.3 195.7 L79.25 191.8 83.55 195.3 81.25 199.4 77.3 195.7 M85.45 179.3 L87.2 175.75 92.2 179.85 90.25 183.35 85.45 179.3" fill="#dbdbdb" fill-rule="evenodd" stroke="none"/>
      <path d="M58.75 145.2 L69.25 111.15 75.5 77.05 96.7 11.15 108.6 2.4 107.95 11.9 102.7 23.2 93.5 43.0 88.6 63.25 86.25 87.55 85.6 93.55 82.1 129.45 75.55 139.8 58.75 145.2" fill="url(#gradient5)" fill-rule="evenodd" stroke="none"/>
      <path d="M102.7 23.2 L107.95 11.9 107.95 24.0 106.65 41.85 106.55 41.45 99.55 51.25 102.7 23.2" fill="url(#gradient6)" fill-rule="evenodd" stroke="none"/>
      <path d="M102.7 23.2 L99.55 51.25 106.55 41.45 106.65 41.85 106.65 41.95 103.95 73.15 104.3 108.9 97.85 120.4 104.25 120.4 104.2 137.5 95.65 154.05 81.05 182.05 83.4 129.4 83.45 128.1 85.25 99.55 86.25 87.55 88.6 63.25 93.5 43.0 102.7 23.2" fill="url(#gradient7)" fill-rule="evenodd" stroke="none"/>
      <path d="M123.3 120.4 L123.3 199.25 114.2 199.25 105.1 199.25 102.6 190.95 93.35 289.0 76.65 276.8 75.95 252.95 77.75 216.45 101.3 171.5 99.7 148.05 95.65 154.05 104.2 137.5 104.25 120.4 123.3 120.4 M85.6 93.55 L86.25 87.55 85.25 99.55 85.6 93.55 M83.45 128.1 L83.4 129.4 83.45 128.1" fill="url(#gradient8)" fill-rule="evenodd" stroke="none"/>
      <path d="M64.25 186.25 L64.3 186.2 58.75 145.2 75.55 139.8 78.45 187.05 64.8 190.55 64.25 186.3 64.25 186.25" fill="url(#gradient9)" fill-rule="evenodd" stroke="none"/>
      <path d="M75.55 139.8 L82.1 129.45 78.45 187.05 75.55 139.8" fill="url(#gradient10)" fill-rule="evenodd" stroke="none"/>
      <path d="M81.05 182.05 L95.65 154.05 99.7 148.05 101.3 171.5 75.65 215.3 69.35 207.75 78.45 187.05 81.05 182.05 M54.55 115.05 L54.6 114.9 54.6 115.0 54.55 115.05 M79.25 191.8 L77.3 195.7 72.75 204.75 76.0 208.75 81.25 199.4 83.55 195.3 90.25 183.35 92.2 179.85 98.0 169.5 98.0 154.0 87.2 175.75 85.45 179.3 79.25 191.8" fill="#d7d7d7" fill-rule="evenodd" stroke="none"/>
      <path d="M63.75 321.05 L59.85 316.4 57.9 300.05 60.2 297.25 57.45 296.4 56.25 286.55 51.1 244.0 49.65 231.9 49.65 231.85 45.85 200.65 64.8 190.55 78.45 187.05 69.35 207.75 56.55 228.55 63.75 321.05 M64.7 196.4 Q66.7 195.5 66.95 197.4 L67.6 202.6 Q67.85 204.5 65.85 205.4 L53.6 210.9 Q51.6 211.8 51.35 209.9 L50.7 204.7 Q50.45 202.8 52.45 201.9 L64.7 196.4 52.45 201.9 Q50.45 202.8 50.7 204.7 L51.35 209.9 Q51.6 211.8 53.6 210.9 L65.85 205.4 Q67.85 204.5 67.6 202.6 L66.95 197.4 Q66.7 195.5 64.7 196.4" fill="url(#gradient11)" fill-rule="evenodd" stroke="none"/>
      <path d="M64.25 186.3 L64.25 186.25 64.25 186.3" fill="url(#gradient12)" fill-rule="evenodd" stroke="none"/>
      <path d="M57.9 300.05 L40.45 292.9 40.25 290.45 57.45 296.4 60.2 297.25 57.9 300.05 M39.3 206.9 Q39.2 206.95 39.05 207.05 L39.05 199.7 64.25 186.3 64.8 190.55 45.85 200.65 39.4 204.05 39.65 206.75 39.3 206.9" fill="#434343" fill-rule="evenodd" stroke="none"/>
      <path d="M123.3 108.9 L123.3 120.4 104.25 120.4 97.85 120.4 104.3 108.9 123.3 108.9" fill="#afafaf" fill-rule="evenodd" stroke="none"/>
      <path d="M83.4 129.4 L81.05 182.05 78.45 187.05 82.1 129.45 82.1 129.4 83.4 129.4" fill="#979797" fill-rule="evenodd" stroke="none"/>
      <path d="M85.25 99.55 L83.45 128.1 83.4 129.4 82.1 129.4 82.1 129.45 85.6 93.55 85.25 99.55" fill="#8d8d8d" fill-rule="evenodd" stroke="none"/>
      <path d="M77.3 195.7 L81.25 199.4 76.0 208.75 72.75 204.75 77.3 195.7 M83.55 195.3 L79.25 191.8 85.45 179.3 90.25 183.35 83.55 195.3 M87.2 175.75 L98.0 154.0 98.0 169.5 92.2 179.85 87.2 175.75" fill="url(#gradient13)" fill-rule="evenodd" stroke="none"/>
      <path d="M97.4 292.7 L91.2 327.0 91.4 325.35 105.1 199.25 114.2 199.25 98.65 285.7 97.4 292.7" fill="url(#gradient14)" fill-rule="evenodd" stroke="none"/>
      <path d="M111.7 299.75 L97.4 292.7 98.65 285.7 109.35 295.3 111.7 299.75" fill="#383838" fill-rule="evenodd" stroke="none"/>
      <path d="M109.35 295.3 L98.65 285.7 114.2 199.25 109.35 295.3" fill="url(#gradient15)" fill-rule="evenodd" stroke="none"/>
      <path d="M123.3 199.25 L123.3 295.3 109.35 295.3 114.2 199.25 123.3 199.25" fill="url(#gradient16)" fill-rule="evenodd" stroke="none"/>
      <path d="M123.3 295.3 L123.3 299.75 111.7 299.75 109.35 295.3 123.3 295.3" fill="#515151" fill-rule="evenodd" stroke="none"/>
      <path d="M69.35 207.75 L75.65 215.3 75.65 242.8 69.35 236.7 69.35 207.75" fill="#9a9a9a" fill-rule="evenodd" stroke="none"/>
      <path d="M49.65 231.9 L51.1 244.0 46.5 249.7 50.25 282.7 56.25 286.55 57.45 296.4 40.25 290.45 31.15 258.75 49.65 231.9" fill="url(#gradient17)" fill-rule="evenodd" stroke="none"/>
      <path d="M40.25 290.45 L27.6 258.15 43.1 240.5 49.65 231.85 49.65 231.9 31.15 258.75 40.25 290.45" fill="#cdcdcd" fill-rule="evenodd" stroke="none"/>
      <path d="M43.1 240.5 L39.3 206.9 39.65 206.75 39.4 204.05 45.85 200.65 49.65 231.85 43.1 240.5" fill="url(#gradient18)" fill-rule="evenodd" stroke="none"/>
      <path d="M75.95 252.95 L76.65 276.8 71.05 282.7 69.85 263.2 69.35 236.7 75.65 242.8 75.95 252.95 M69.8 262.2 L69.85 262.8 69.8 262.4 69.8 262.2" fill="#4b4b4b" fill-rule="evenodd" stroke="none"/>
      <path d="M70.0 328.55 L63.75 321.05 56.55 228.55 69.35 207.75 69.35 236.7 69.85 263.2 69.85 262.8 69.8 262.2 69.65 262.4 69.8 284.05 70.0 328.55" fill="url(#gradient19)" fill-rule="evenodd" stroke="none"/>
      <path d="M101.3 171.5 L77.75 216.45 75.95 252.95 75.65 242.8 75.65 215.3 101.3 171.5" fill="#e6e6e6" fill-rule="evenodd" stroke="none"/>
      <path d="M69.8 262.4 L69.85 262.8 69.85 263.2 71.05 282.7 69.8 284.05 69.65 262.4 69.8 262.4" fill="#727272" fill-rule="evenodd" stroke="none"/>
      <path d="M69.8 262.2 L69.8 262.4 69.65 262.4 69.8 262.2" fill="#ffffff" fill-rule="evenodd" stroke="none"/>
      <path d="M51.1 244.0 L56.25 286.55 50.25 282.7 46.5 249.7 51.1 244.0" fill="#666666" fill-rule="evenodd" stroke="none"/>
      <path d="M91.2 328.55 L70.0 328.55 69.8 284.05 71.05 282.7 76.65 276.8 93.35 289.0 102.6 190.95 105.1 199.25 91.4 325.35 93.35 289.0 76.75 279.2 71.05 282.7 72.35 326.4 91.2 328.55" fill="#d2d2d2" fill-rule="evenodd" stroke="none"/>
      <path d="M91.2 327.0 L91.2 328.55 72.35 326.4 71.05 282.7 76.75 279.2 93.35 289.0 91.4 325.35 91.2 327.0" fill="url(#gradient20)" fill-rule="evenodd" stroke="none"/>
      <path d="M75.55 139.8 L82.1 129.45 82.1 129.4 83.4 129.4 M58.75 145.2 L75.55 139.8" fill="none" stroke="#000000" stroke-linecap="round" stroke-linejoin="round" stroke-opacity="0.14901961" stroke-width="1.0"/>
      <path d="M64.7 196.4 L52.45 201.9 Q50.45 202.8 50.7 204.7 L51.35 209.9 Q51.6 211.8 53.6 210.9 L65.85 205.4 Q67.85 204.5 67.6 202.6 L66.95 197.4 Q66.7 195.5 64.7 196.4 M75.95 252.95 L76.65 276.8 93.35 289.0 M75.65 215.3 L69.35 207.75 M69.35 236.7 L75.65 242.8 75.65 215.3 M71.05 282.7 L69.8 284.05 M76.65 276.8 L71.05 282.7 M75.65 242.8 L75.95 252.95" fill="none" stroke="#000000" stroke-linecap="round" stroke-linejoin="round" stroke-opacity="0.2" stroke-width="1.0"/>
      <path d="M63.75 321.05 L70.0 328.55 86.35 328.55 86.7 331.55 86.25 332.55 66.5 332.55 56.35 320.4 54.4 304.05 45.95 300.6 45.1 294.8 57.9 300.05 59.85 316.4 63.75 321.05" fill="#000000" fill-opacity="0.36078432" fill-rule="evenodd" stroke="none"/>
      <path d="M78.45 187.05 L69.35 207.75 56.55 228.55 63.75 321.05 59.85 316.4 57.9 300.05 60.2 297.25 57.45 296.4 45.85 200.65 65.8 190.3 78.45 187.05" fill="url(#gradient21)" fill-rule="evenodd" stroke="none"/>
      <path d="M99.7 148.05 L95.65 154.05 95.25 154.85 98.95 147.65 99.7 148.05" fill="url(#gradient22)" fill-rule="evenodd" stroke="none"/>
      <path d="M113.0 120.4 L123.3 120.4 123.3 199.25 105.1 199.25 102.6 190.95 93.35 289.0 76.65 276.8 75.95 252.95 77.75 216.45 101.3 171.5 99.7 148.05 98.95 147.65 113.0 120.4" fill="url(#gradient23)" fill-rule="evenodd" stroke="none"/>
      <path d="M86.55 84.1 L70.55 99.55 75.5 77.05 96.7 11.15 98.7 25.65 88.6 63.25 89.0 72.45 86.55 84.1" fill="url(#gradient24)" fill-rule="evenodd" stroke="none"/>
      <path d="M86.55 84.1 L89.0 72.45 84.5 111.45 97.85 120.4 113.0 120.4 98.95 147.65 95.25 154.85 78.45 187.05 82.1 129.45 82.1 129.4 83.4 129.4 85.6 93.55 86.55 84.1" fill="url(#gradient25)" fill-rule="evenodd" stroke="none"/>
      <path d="M103.35 81.2 L103.85 77.55 123.3 108.9 123.3 209.8 104.55 209.8 97.3 180.55 103.1 84.2 103.35 81.2" fill="#dedede" fill-rule="evenodd" stroke="none"/>
      <path d="M113.45 226.05 L99.0 226.05 99.2 224.05 113.45 224.05 113.45 226.05 M111.65 242.55 L97.5 242.55 97.7 240.2 111.65 240.2 111.65 242.55 M109.95 255.9 L109.95 258.3 96.05 258.3 96.3 255.9 109.95 255.9" fill="#838383" fill-rule="evenodd" stroke="none"/>
      <path d="M123.3 224.05 L123.3 226.05 113.45 226.05 113.45 224.05 123.3 224.05 M123.3 240.2 L123.3 242.55 111.65 242.55 111.65 240.2 123.3 240.2 M109.95 258.3 L109.95 255.9 123.3 255.9 123.3 258.3 109.95 258.3" fill="#777777" fill-rule="evenodd" stroke="none"/>
      <path d="M97.7 240.2 L98.55 231.3 123.3 231.3 123.3 240.2 111.65 240.2 97.7 240.2 M99.2 224.05 L98.2 224.05 99.75 217.85 123.3 217.85 123.3 224.05 113.45 224.05 99.2 224.05 M123.3 255.9 L109.95 255.9 96.3 255.9 97.15 247.95 123.3 247.95 123.3 255.9" fill="#b9b9b9" fill-rule="evenodd" stroke="none"/>
      <path d="M95.05 182.2 L85.4 173.7 99.45 108.3 103.35 81.2 103.1 84.2 95.05 182.2" fill="#b0b0b0" fill-rule="evenodd" stroke="none"/>
      <path d="M29.45 262.85 L74.35 240.75 58.75 256.95 31.85 269.1 29.45 262.85" fill="#000000" fill-opacity="0.29803923" fill-rule="evenodd" stroke="none"/>
      <path d="M104.55 209.8 L103.85 209.8 95.05 182.2 103.1 84.2 97.3 180.55 104.55 209.8" fill="#f7f7f7" fill-rule="evenodd" stroke="none"/>
      <path d="M99.0 226.05 L75.65 242.8" fill="none" stroke="#000000" stroke-linecap="round" stroke-linejoin="round" stroke-opacity="0.101960786" stroke-width="1.0"/>
      <path d="M115.75 68.45 L123.3 61.0 123.3 70.35 115.75 77.6 115.75 68.45 M115.75 81.9 L123.3 74.45 123.3 83.8 115.75 91.05 115.75 81.9 M115.75 95.95 L123.3 88.5 123.3 97.85 115.75 105.1 115.75 95.95" fill="#000000" fill-opacity="0.101960786" fill-rule="evenodd" stroke="none"/>
      <path d="M115.75 77.6 L111.8 81.4 111.8 72.3 115.75 68.45 115.75 77.6 M115.75 91.05 L111.8 94.85 111.8 85.75 115.75 81.9 115.75 91.05 M115.75 105.1 L111.8 108.9 111.8 99.8 115.75 95.95 115.75 105.1" fill="#000000" fill-opacity="0.18039216" fill-rule="evenodd" stroke="none"/>
      <path d="M110.85 266.0 L116.05 266.0 116.05 270.15 110.65 270.15 110.85 266.0 M110.3 277.1 L110.5 272.8 116.05 272.8 116.05 277.1 110.3 277.1 M110.15 279.9 L116.05 279.9 116.05 284.05 109.9 284.05 110.15 279.9" fill="#5b5b5b" fill-rule="evenodd" stroke="none"/>
      <path d="M110.65 270.15 L105.1 265.3 105.75 261.85 110.85 266.0 110.65 270.15 M110.3 277.1 L103.85 271.55 104.65 267.65 110.5 272.8 110.3 277.1 M109.9 284.05 L102.6 277.9 103.4 274.0 110.15 279.9 109.9 284.05" fill="#2f2f2f" fill-rule="evenodd" stroke="none"/>
      <path d="M113.5 130.1 Q113.5 131.0 112.85 131.65 112.2 132.3 111.3 132.3 110.4 132.3 109.75 131.65 109.1 131.0 109.1 130.1 109.1 129.2 109.75 128.55 110.4 127.9 111.3 127.9 112.2 127.9 112.85 128.55 113.5 129.2 113.5 130.1 M74.35 287.75 Q74.35 286.7 75.05 285.95 75.8 285.25 76.85 285.25 77.9 285.25 78.6 285.95 79.35 286.7 79.35 287.75 79.35 288.8 78.6 289.5 77.9 290.25 76.85 290.25 75.8 290.25 75.05 289.5 74.35 288.8 74.35 287.75" fill="none" stroke="#000000" stroke-linecap="round" stroke-linejoin="round" stroke-opacity="0.2" stroke-width="1.0"/>
      <path d="M113.55 209.8 L113.55 150.3" fill="none" stroke="#000000" stroke-linecap="round" stroke-linejoin="round" stroke-opacity="0.14901961" stroke-width="1.0"/>
      <path d="M98.4 128.8 L104.25 122.85 123.3 117.85" fill="none" stroke="#000000" stroke-linecap="round" stroke-linejoin="round" stroke-opacity="0.09803922" stroke-width="1.0"/>
      <path d="M112.55 217.85 L103.85 209.8 106.7 131.75 113.75 122.85 123.3 122.85 123.3 130.1 117.05 130.1 112.55 134.6 112.55 217.85" fill="url(#gradient26)" fill-rule="evenodd" stroke="none"/>
      <path d="M123.3 130.1 L123.3 217.85 112.55 217.85 112.55 134.6 117.05 130.1 123.3 130.1" fill="url(#gradient27)" fill-rule="evenodd" stroke="none"/>
      <path d="M123.3 166.45 L123.3 169.2 105.05 177.4 105.15 174.4 123.3 166.45 M123.3 195.45 L123.3 198.45 104.05 204.7 104.15 202.05 123.3 195.45" fill="#727272" fill-rule="evenodd" stroke="none"/>
      <path d="M123.3 147.8 L123.3 166.45 105.15 174.4 105.8 156.7 123.3 147.8" fill="#dedede" fill-rule="evenodd" stroke="none"/>
      <path d="M104.15 202.05 L104.8 183.45 123.3 175.55 123.3 195.45 104.15 202.05" fill="#c4c4c4" fill-rule="evenodd" stroke="none"/>
      <path d="M123.3 169.2 L123.3 173.95 112.55 178.55 105.05 177.4 123.3 169.2 M123.3 198.45 L123.3 204.55 112.55 208.55 104.05 204.7 123.3 198.45 M102.75 263.2 L103.7 258.3 123.3 258.3 123.3 270.15 110.65 270.15 102.8 263.25 102.75 263.2 M106.7 242.5 L106.7 242.45 123.3 242.55 123.3 247.95 105.65 247.95 106.7 242.5 M123.3 226.05 L123.3 231.5 108.8 231.5 109.8 226.05 123.3 226.05" fill="#000000" fill-opacity="0.3019608" fill-rule="evenodd" stroke="none"/>
      <path d="M105.8 156.7 L106.7 131.75 113.75 122.85 123.3 122.85 123.3 147.8 105.8 156.7" fill="url(#gradient28)" fill-rule="evenodd" stroke="none"/>
      <path d="M89.65 80.55 L89.6 79.1 89.75 81.55 89.65 80.55" fill="url(#gradient29)" fill-rule="evenodd" stroke="none"/>
      <path d="M71.95 84.7 L69.25 111.15 86.45 80.0 86.75 68.45 71.95 84.7 M89.6 79.1 L89.65 80.55 62.0 134.55 68.85 83.85 88.6 63.05 89.15 72.3 89.3 74.65 89.6 79.1" fill="#bababa" fill-rule="evenodd" stroke="none"/>
      <path d="M71.95 84.7 L86.75 68.45 86.45 80.0 69.25 111.15 71.95 84.7" fill="url(#gradient30)" fill-rule="evenodd" stroke="none"/>
      <path d="M89.65 80.55 L89.75 81.55 90.0 88.25 Q90.05 89.35 83.1 118.7 L62.0 134.55 89.65 80.55" fill="#9f9f9f" fill-rule="evenodd" stroke="none"/>
      <path d="M102.65 60.45 L101.45 73.6 Q101.25 75.6 99.1 77.05 L96.45 78.85 Q94.3 80.25 94.5 78.25 L95.7 65.1 Q95.9 63.1 98.05 61.7 L100.7 59.9 Q102.85 58.45 102.65 60.45" fill="#000000" fill-opacity="0.101960786" fill-rule="evenodd" stroke="none"/>
      <path d="M69.35 235.2 L74.35 240.75 35.55 260.45 35.3 257.75 57.55 246.0 61.65 243.85 60.7 244.25 60.6 243.2 60.5 242.4 60.2 239.95 69.35 235.2" fill="#424242" fill-rule="evenodd" stroke="none"/>
      <path d="M4.5 269.65 L-8.05 231.85 50.5 168.7 40.95 180.35 25.05 199.75 -4.7 233.05 -3.0 239.85 4.5 269.65" fill="#c9c9c9" fill-rule="evenodd" stroke="none"/>
      <path d="M14.7 222.9 L20.3 238.05 48.45 222.1 19.0 241.4 14.7 222.9" fill="#b3b3b3" fill-rule="evenodd" stroke="none"/>
      <path d="M14.7 222.9 L-3.0 239.85 -4.7 233.05 25.05 199.75 25.05 213.0 14.7 222.9" fill="#3f3f3f" fill-rule="evenodd" stroke="none"/>
      <path d="M35.55 260.45 Q21.65 266.85 7.7 273.2 L4.5 269.65 23.05 259.8 52.2 244.2 60.15 240.0 60.5 242.4 60.6 243.2 60.7 244.25 57.55 246.0 35.3 257.75 35.55 260.45" fill="#434343" fill-rule="evenodd" stroke="none"/>
      <path d="M69.35 207.75 L69.35 235.2 60.2 239.95 59.9 237.75 60.15 239.95 60.15 240.0 52.2 244.2 48.45 222.1 40.95 180.35 48.45 222.1 52.2 244.2 23.05 259.8 19.0 241.4 23.05 259.8 4.5 269.65 -3.0 239.85 14.7 222.9 25.05 213.0 25.05 199.75 40.95 180.35 50.5 168.7 60.65 158.65 64.8 190.55 69.35 207.75 M23.8 245.25 Q23.8 246.6 24.75 247.55 25.7 248.5 27.05 248.5 28.4 248.5 29.35 247.55 30.3 246.6 30.3 245.25 30.3 243.9 29.35 242.95 28.4 242.0 27.05 242.0 25.7 242.0 24.75 242.95 23.8 243.9 23.8 245.25 M48.45 222.1 L20.3 238.05 14.7 222.9 19.0 241.4 48.45 222.1" fill="url(#gradient31)" fill-rule="evenodd" stroke="none"/>
      <path d="M23.8 245.25 Q23.8 243.9 24.75 242.95 25.7 242.0 27.05 242.0 28.4 242.0 29.35 242.95 30.3 243.9 30.3 245.25 30.3 246.6 29.35 247.55 28.4 248.5 27.05 248.5 25.7 248.5 24.75 247.55 23.8 246.6 23.8 245.25" fill="url(#gradient32)" fill-rule="evenodd" stroke="none"/>
      <path d="M60.65 158.65 L76.4 153.3 78.45 187.05 69.35 207.75 64.8 190.55 60.65 158.65" fill="url(#gradient33)" fill-rule="evenodd" stroke="none"/>
      <path d="M102.7 23.2 L96.7 11.15 M102.65 60.45 Q102.85 58.45 100.7 59.9 L98.05 61.7 Q95.9 63.1 95.7 65.1 L94.5 78.25 Q94.3 80.25 96.45 78.85 L99.1 77.05 Q101.25 75.6 101.45 73.6 L102.65 60.45 M40.95 180.35 L48.45 222.1 52.2 244.2 M48.45 222.1 L19.0 241.4 23.05 259.8 M19.0 241.4 L14.7 222.9 -3.0 239.85 M25.05 199.75 L25.05 213.0 14.7 222.9" fill="none" stroke="#000000" stroke-linecap="round" stroke-linejoin="round" stroke-opacity="0.18039216" stroke-width="1.0"/>
      <path d="M23.8 245.25 Q23.8 243.9 24.75 242.95 25.7 242.0 27.05 242.0 28.4 242.0 29.35 242.95 30.3 243.9 30.3 245.25 30.3 246.6 29.35 247.55 28.4 248.5 27.05 248.5 25.7 248.5 24.75 247.55 23.8 246.6 23.8 245.25 Z" fill="none" stroke="#000000" stroke-linecap="round" stroke-linejoin="round" stroke-opacity="0.2" stroke-width="1.0"/>
    </g>
    <linearGradient gradientTransform="matrix(-0.0166, 8.0E-4, -7.0E-4, -0.0141, 59.65, 286.5)" gradientUnits="userSpaceOnUse" id="gradient0" spreadMethod="pad" x1="-819.2" x2="819.2">
      <stop offset="0.0" stop-color="#6b6b6b"/>
      <stop offset="0.2" stop-color="#2a2a2a"/>
      <stop offset="0.47058823529411764" stop-color="#aaaaaa"/>
      <stop offset="0.7294117647058823" stop-color="#d9d9d9"/>
      <stop offset="1.0" stop-color="#515050"/>
    </linearGradient>
    <linearGradient gradientTransform="matrix(-0.0167, 8.0E-4, -9.0E-4, -0.0193, 64.75, 319.35)" gradientUnits="userSpaceOnUse" id="gradient1" spreadMethod="pad" x1="-819.2" x2="819.2">
      <stop offset="0.0" stop-color="#6b6b6b"/>
      <stop offset="0.2" stop-color="#2a2a2a"/>
      <stop offset="0.47058823529411764" stop-color="#aaaaaa"/>
      <stop offset="0.7294117647058823" stop-color="#d9d9d9"/>
      <stop offset="1.0" stop-color="#515050"/>
    </linearGradient>
    <linearGradient gradientTransform="matrix(-0.0221, 0.001, -1.0E-4, -0.0024, 63.15, 299.75)" gradientUnits="userSpaceOnUse" id="gradient2" spreadMethod="pad" x1="-819.2" x2="819.2">
      <stop offset="0.0" stop-color="#6b6b6b"/>
      <stop offset="0.2" stop-color="#2a2a2a"/>
      <stop offset="0.47058823529411764" stop-color="#5f5f5f"/>
      <stop offset="0.7294117647058823" stop-color="#2e2e2e"/>
      <stop offset="1.0" stop-color="#515050"/>
    </linearGradient>
    <linearGradient gradientTransform="matrix(0.0, -0.0111, 0.0046, 0.0, 55.5, 134.6)" gradientUnits="userSpaceOnUse" id="gradient3" spreadMethod="pad" x1="-819.2" x2="819.2">
      <stop offset="0.0" stop-color="#747474"/>
      <stop offset="1.0" stop-color="#919191"/>
    </linearGradient>
    <linearGradient gradientTransform="matrix(0.0, 0.0101, -0.0139, 0.0, 111.9, 21.25)" gradientUnits="userSpaceOnUse" id="gradient4" spreadMethod="pad" x1="-819.2" x2="819.2">
      <stop offset="0.0" stop-color="#625342"/>
      <stop offset="1.0" stop-color="#382e27"/>
    </linearGradient>
    <linearGradient gradientTransform="matrix(-0.0074, -0.002, 0.0156, -0.0581, 84.9, 49.0)" gradientUnits="userSpaceOnUse" id="gradient5" spreadMethod="pad" x1="-819.2" x2="819.2">
      <stop offset="0.0" stop-color="#b1b1b1"/>
      <stop offset="1.0" stop-color="#7b7b7b"/>
    </linearGradient>
    <linearGradient gradientTransform="matrix(0.0021, 0.0021, -0.0145, 0.0145, 94.35, 34.65)" gradientUnits="userSpaceOnUse" id="gradient6" spreadMethod="pad" x1="-819.2" x2="819.2">
      <stop offset="0.0" stop-color="#312921"/>
      <stop offset="1.0" stop-color="#272222"/>
    </linearGradient>
    <linearGradient gradientTransform="matrix(-0.0201, -0.002, 0.0049, -0.0488, 90.2, 79.95)" gradientUnits="userSpaceOnUse" id="gradient7" spreadMethod="pad" x1="-819.2" x2="819.2">
      <stop offset="0.0" stop-color="#d5d5d5"/>
      <stop offset="1.0" stop-color="#575757"/>
    </linearGradient>
    <linearGradient gradientTransform="matrix(-0.0291, 0.0, 0.0, -0.0873, 95.9, 257.05)" gradientUnits="userSpaceOnUse" id="gradient8" spreadMethod="pad" x1="-819.2" x2="819.2">
      <stop offset="0.0" stop-color="#b9b9b9"/>
      <stop offset="1.0" stop-color="#c2c2c2"/>
      <stop offset="1.0" stop-color="#dadada"/>
    </linearGradient>
    <linearGradient gradientTransform="matrix(0.004, -0.0699, 0.0206, 0.0012, 67.8, 131.05)" gradientUnits="userSpaceOnUse" id="gradient9" spreadMethod="pad" x1="-819.2" x2="819.2">
      <stop offset="0.0" stop-color="#838383"/>
      <stop offset="1.0" stop-color="#dbdbdb"/>
    </linearGradient>
    <linearGradient gradientTransform="matrix(0.0085, 0.0, -2.0E-4, 0.0636, 82.0, 128.2)" gradientUnits="userSpaceOnUse" id="gradient10" spreadMethod="pad" x1="-819.2" x2="819.2">
      <stop offset="0.0" stop-color="#939393"/>
      <stop offset="1.0" stop-color="#cdcdcd"/>
    </linearGradient>
    <linearGradient gradientTransform="matrix(0.0146, 0.0, 0.0, 0.0982, 58.05, 248.1)" gradientUnits="userSpaceOnUse" id="gradient11" spreadMethod="pad" x1="-819.2" x2="819.2">
      <stop offset="0.0" stop-color="#4f4e4e"/>
      <stop offset="1.0" stop-color="#b5b5b5"/>
      <stop offset="1.0" stop-color="#9a9a9a"/>
    </linearGradient>
    <linearGradient gradientTransform="matrix(0.0185, -0.0522, 0.0347, 0.0123, 28.25, 177.55)" gradientUnits="userSpaceOnUse" id="gradient12" spreadMethod="pad" x1="-819.2" x2="819.2">
      <stop offset="0.0" stop-color="#717070"/>
      <stop offset="1.0" stop-color="#848484"/>
    </linearGradient>
    <linearGradient gradientTransform="matrix(0.0041, 0.0024, -0.0137, 0.0238, 84.0, 184.75)" gradientUnits="userSpaceOnUse" id="gradient13" spreadMethod="pad" x1="-819.2" x2="819.2">
      <stop offset="0.0" stop-color="#e9e9e9"/>
      <stop offset="1.0" stop-color="#9a9a9a"/>
    </linearGradient>
    <linearGradient gradientTransform="matrix(-0.0058, -7.0E-4, 0.0098, -0.0797, 103.65, 259.7)" gradientUnits="userSpaceOnUse" id="gradient14" spreadMethod="pad" x1="-819.2" x2="819.2">
      <stop offset="0.0" stop-color="#333333"/>
      <stop offset="1.0" stop-color="#8e8e8e"/>
      <stop offset="1.0" stop-color="#9a9a9a"/>
    </linearGradient>
    <linearGradient gradientTransform="matrix(0.0132, 0.0024, -0.0104, 0.0576, 110.95, 247.25)" gradientUnits="userSpaceOnUse" id="gradient15" spreadMethod="pad" x1="-819.2" x2="819.2">
      <stop offset="0.0" stop-color="#333333"/>
      <stop offset="1.0" stop-color="#7e7e7e"/>
      <stop offset="1.0" stop-color="#9a9a9a"/>
    </linearGradient>
    <linearGradient gradientTransform="matrix(0.0132, 0.0024, -0.0104, 0.0576, 110.95, 247.25)" gradientUnits="userSpaceOnUse" id="gradient16" spreadMethod="pad" x1="-819.2" x2="819.2">
      <stop offset="0.0" stop-color="#383838"/>
      <stop offset="1.0" stop-color="#9f9f9f"/>
      <stop offset="1.0" stop-color="#9a9a9a"/>
    </linearGradient>
    <linearGradient gradientTransform="matrix(0.009, -8.0E-4, 0.0038, 0.0413, 46.3, 267.9)" gradientUnits="userSpaceOnUse" id="gradient17" spreadMethod="pad" x1="-819.2" x2="819.2">
      <stop offset="0.0" stop-color="#a4a4a4"/>
      <stop offset="1.0" stop-color="#7d7d7d"/>
    </linearGradient>
    <linearGradient gradientTransform="matrix(-0.0099, 0.0012, -0.0033, -0.0266, 46.8, 207.0)" gradientUnits="userSpaceOnUse" id="gradient18" spreadMethod="pad" x1="-819.2" x2="819.2">
      <stop offset="0.0" stop-color="#434343"/>
      <stop offset="1.0" stop-color="#2a2a2a"/>
    </linearGradient>
    <linearGradient gradientTransform="matrix(0.0146, 0.0011, -0.0073, 0.0979, 62.45, 249.85)" gradientUnits="userSpaceOnUse" id="gradient19" spreadMethod="pad" x1="-819.2" x2="819.2">
      <stop offset="0.0" stop-color="#333333"/>
      <stop offset="0.7450980392156863" stop-color="#8e8e8e"/>
      <stop offset="1.0" stop-color="#d0d0d0"/>
    </linearGradient>
    <linearGradient gradientTransform="matrix(-0.006, 0.076, -0.0138, -0.0011, 84.85, 252.7)" gradientUnits="userSpaceOnUse" id="gradient20" spreadMethod="pad" x1="-819.2" x2="819.2">
      <stop offset="0.0" stop-color="#cdcdcd"/>
      <stop offset="1.0" stop-color="#aaaaaa"/>
      <stop offset="1.0" stop-color="#dadada"/>
    </linearGradient>
    <linearGradient gradientTransform="matrix(0.0, 0.0174, -0.0191, 0.0, 60.95, 187.65)" gradientUnits="userSpaceOnUse" id="gradient21" spreadMethod="pad" x1="-819.2" x2="819.2">
      <stop offset="0.0" stop-color="#000000" stop-opacity="0.49019608"/>
      <stop offset="1.0" stop-color="#000000" stop-opacity="0.0"/>
    </linearGradient>
    <linearGradient gradientTransform="matrix(-0.0291, 0.0, 0.0, -0.0873, 95.9, 257.05)" gradientUnits="userSpaceOnUse" id="gradient22" spreadMethod="pad" x1="-819.2" x2="819.2">
      <stop offset="0.403921568627451" stop-color="#e9e9e9"/>
      <stop offset="1.0" stop-color="#c2c2c2"/>
      <stop offset="1.0" stop-color="#dadada"/>
    </linearGradient>
    <linearGradient gradientTransform="matrix(-0.006, 0.076, -0.0138, -0.0011, 84.85, 252.7)" gradientUnits="userSpaceOnUse" id="gradient23" spreadMethod="pad" x1="-819.2" x2="819.2">
      <stop offset="0.0" stop-color="#cdcdcd"/>
      <stop offset="1.0" stop-color="#aaaaaa"/>
      <stop offset="1.0" stop-color="#dadada"/>
    </linearGradient>
    <linearGradient gradientTransform="matrix(0.0064, -0.0242, 0.0097, 0.0025, 82.6, 41.75)" gradientUnits="userSpaceOnUse" id="gradient24" spreadMethod="pad" x1="-819.2" x2="819.2">
      <stop offset="0.0" stop-color="#000000" stop-opacity="0.49019608"/>
      <stop offset="1.0" stop-color="#000000" stop-opacity="0.0"/>
    </linearGradient>
    <linearGradient gradientTransform="matrix(-0.0067, -0.0067, 0.0409, -0.0409, 96.9, 138.5)" gradientUnits="userSpaceOnUse" id="gradient25" spreadMethod="pad" x1="-819.2" x2="819.2">
      <stop offset="0.0" stop-color="#000000" stop-opacity="0.13725491"/>
      <stop offset="1.0" stop-color="#000000" stop-opacity="0.0"/>
    </linearGradient>
    <linearGradient gradientTransform="matrix(-0.0096, -4.0E-4, 0.0023, -0.053, 113.1, 166.3)" gradientUnits="userSpaceOnUse" id="gradient26" spreadMethod="pad" x1="-819.2" x2="819.2">
      <stop offset="0.11764705882352941" stop-color="#565656"/>
      <stop offset="0.4627450980392157" stop-color="#545454"/>
      <stop offset="1.0" stop-color="#939393"/>
      <stop offset="1.0" stop-color="#9a9a9a"/>
    </linearGradient>
    <linearGradient gradientTransform="matrix(0.0062, 0.0, 0.0, 0.0585, 118.25, 249.4)" gradientUnits="userSpaceOnUse" id="gradient27" spreadMethod="pad" x1="-819.2" x2="819.2">
      <stop offset="0.0" stop-color="#696969"/>
      <stop offset="0.8235294117647058" stop-color="#a1a1a1"/>
    </linearGradient>
    <linearGradient gradientTransform="matrix(0.0058, 0.0146, -0.0163, 0.0064, 113.75, 137.7)" gradientUnits="userSpaceOnUse" id="gradient28" spreadMethod="pad" x1="-819.2" x2="819.2">
      <stop offset="0.0" stop-color="#dedede"/>
      <stop offset="0.7450980392156863" stop-color="#b8b8b8"/>
      <stop offset="1.0" stop-color="#929292"/>
    </linearGradient>
    <linearGradient gradientTransform="matrix(0.0057, 0.0056, -0.017, 0.0174, 80.15, 82.8)" gradientUnits="userSpaceOnUse" id="gradient29" spreadMethod="pad" x1="-819.2" x2="819.2">
      <stop offset="0.0" stop-color="#818181"/>
      <stop offset="1.0" stop-color="#dbdbdb"/>
      <stop offset="1.0" stop-color="#b7b7b7"/>
    </linearGradient>
    <linearGradient gradientTransform="matrix(-0.006, -0.006, 0.0119, -0.0119, 81.2, 81.85)" gradientUnits="userSpaceOnUse" id="gradient30" spreadMethod="pad" x1="-819.2" x2="819.2">
      <stop offset="0.0" stop-color="#656565"/>
      <stop offset="1.0" stop-color="#bababa"/>
    </linearGradient>
    <linearGradient gradientTransform="matrix(0.0461, -0.0333, 0.0124, 0.0172, 42.7, 224.05)" gradientUnits="userSpaceOnUse" id="gradient31" spreadMethod="pad" x1="-819.2" x2="819.2">
      <stop offset="0.0" stop-color="#8a8a8a"/>
      <stop offset="1.0" stop-color="#bababa"/>
    </linearGradient>
    <linearGradient gradientTransform="matrix(0.0185, -0.0522, 0.0347, 0.0123, 24.15, 231.25)" gradientUnits="userSpaceOnUse" id="gradient32" spreadMethod="pad" x1="-819.2" x2="819.2">
      <stop offset="0.0" stop-color="#717070"/>
      <stop offset="1.0" stop-color="#b3b3b3"/>
    </linearGradient>
    <linearGradient gradientTransform="matrix(-0.0044, 0.0283, -0.0132, -0.002, 68.4, 180.0)" gradientUnits="userSpaceOnUse" id="gradient33" spreadMethod="pad" x1="-819.2" x2="819.2">
      <stop offset="0.0" stop-color="#bababa"/>
      <stop offset="1.0" stop-color="#8d8d8d"/>
    </linearGradient>
  </defs>
</svg>
