<?xml version="1.0" encoding="UTF-8" standalone="no"?>
<svg xmlns:ffdec="https://www.free-decompiler.com/flash" xmlns:xlink="http://www.w3.org/1999/xlink" ffdec:objectType="frame" height="135.45px" width="135.3px" xmlns="http://www.w3.org/2000/svg">
  <g transform="matrix(1.0, 0.0, 0.0, 1.0, 2.6, 2.75)">
    <use ffdec:characterId="631" height="135.45" transform="matrix(1.0, 0.0, 0.0, 1.0, 0.0, 0.0)" width="135.3" xlink:href="#sprite0"/>
    <use ffdec:characterId="698" height="128.55" transform="matrix(1.0, 0.0, 0.0, 1.0, 0.0, 0.0)" width="86.5" xlink:href="#shape2"/>
  </g>
  <defs>
    <g id="sprite0">
      <use ffdec:characterId="628" height="130.0" transform="matrix(1.0, 0.0, 0.0, 1.0, 0.0, 0.0)" width="130.0" xlink:href="#shape0"/>
      <use ffdec:characterId="630" height="19.2" transform="matrix(1.0, 0.0, 0.0, 1.0, 0.0, 0.0)" width="19.4" xlink:href="#sprite1"/>
      <use ffdec:characterId="630" height="19.2" transform="matrix(0.0, 1.0, -1.0, 0.0, 130.0, -0.15)" width="19.4" xlink:href="#sprite1"/>
      <use ffdec:characterId="630" height="19.2" transform="matrix(0.0, -1.0, 1.0, 0.0, 0.15, 129.6)" width="19.4" xlink:href="#sprite1"/>
      <use ffdec:characterId="630" height="19.2" transform="matrix(-1.0, 0.0, 0.0, -1.0, 130.0, 130.0)" width="19.4" xlink:href="#sprite1"/>
    </g>
    <g id="shape0">
      <path d="M130.0 130.0 L0.0 130.0 0.0 0.0 130.0 0.0 130.0 130.0" fill="#ffffff" fill-opacity="0.011764706" fill-rule="evenodd" stroke="none"/>
      <path d="M16.8 5.3 L16.8 5.35 16.75 5.35 16.8 5.3" fill="#ffffff" fill-opacity="0.70980394" fill-rule="evenodd" stroke="none"/>
    </g>
    <g id="sprite1">
      <use ffdec:characterId="629" height="19.2" transform="matrix(1.0, 0.0, 0.0, 1.0, 0.0, 0.0)" width="19.4" xlink:href="#shape1"/>
    </g>
    <g id="shape1">
      <path d="M16.8 5.3 L16.75 5.35 5.55 5.35 5.55 16.5 2.65 16.5 2.65 2.65 16.8 2.65 16.8 5.3" fill="#ffffff" fill-opacity="0.011764706" fill-rule="evenodd" stroke="none"/>
      <path d="M14.2 -2.7 L14.2 -0.05 0.05 -0.05 0.05 13.8 -2.6 13.8 -2.6 -2.7 14.2 -2.7" fill="#ffffff" fill-opacity="0.007843138" fill-rule="evenodd" stroke="none"/>
    </g>
    <g id="shape2">
      <path d="M97.95 47.9 L97.35 52.9 91.6 47.15 91.6 41.55 97.95 47.9 M87.7 43.0 L81.75 43.0 66.65 12.0 72.05 12.0 87.7 43.0 M103.1 58.65 L99.9 55.45 100.65 50.6 107.0 56.95 107.0 62.3 103.1 62.3 103.1 58.65 M107.0 66.25 L107.0 76.0 103.1 76.0 103.1 66.25 107.0 66.25 M81.1 53.55 L47.4 53.55 47.4 56.45 81.1 56.45 81.1 53.55 M93.8 62.1 L33.7 62.1 33.7 56.45 39.8 56.45 39.8 47.9 87.7 47.9 87.7 56.45 93.8 56.45 93.8 62.1 M97.45 75.4 L97.45 80.9 30.05 80.9 30.05 75.4 39.8 75.4 39.8 67.95 87.7 67.95 87.7 75.4 97.45 75.4 M97.45 94.6 L99.95 90.05 103.25 92.3 100.3 97.45 97.45 94.6 M103.1 84.3 L103.1 79.9 107.0 79.9 107.0 85.8 104.65 89.85 101.35 87.5 103.1 84.3 M81.1 75.75 L81.1 72.85 47.4 72.85 47.4 75.75 81.1 75.75 M72.05 7.35 L55.45 7.35 55.45 4.9 Q58.25 0.95 63.75 0.5 69.25 0.95 72.05 4.9 L72.05 7.35 M55.7 29.8 L60.8 18.35 60.8 43.0 55.7 43.0 55.7 29.8 M71.8 29.8 L71.8 43.0 66.65 43.0 66.65 18.35 71.8 29.8 M60.8 12.0 L45.7 43.0 39.8 43.0 55.45 12.0 60.8 12.0 M68.15 115.85 L68.15 111.45 59.35 111.45 59.35 115.85 68.15 115.85 M68.15 106.8 L68.15 102.4 59.35 102.4 59.35 106.8 68.15 106.8 M27.55 90.05 L30.05 94.6 27.2 97.45 24.25 92.3 27.55 90.05 M20.5 85.8 L20.5 79.9 24.4 79.9 24.4 84.3 26.15 87.5 22.85 89.85 20.5 85.8 M20.5 66.25 L24.4 66.25 24.4 76.0 20.5 76.0 20.5 66.25 M20.5 56.95 L26.85 50.6 27.6 55.45 24.4 58.65 24.4 62.3 20.5 62.3 20.5 56.95 M29.55 47.9 L35.9 41.55 35.9 47.15 30.15 52.9 29.55 47.9 M50.05 129.05 L34.95 129.05 27.35 121.45 27.35 105.35 36.25 96.4 36.25 112.65 39.8 109.1 39.8 86.25 87.7 86.25 87.7 109.1 91.25 112.65 91.25 96.4 100.15 105.35 100.15 121.45 92.55 129.05 77.45 129.05 77.45 107.55 72.3 95.05 72.3 129.05 54.95 129.05 54.95 95.05 50.05 107.55 50.05 129.05 M59.35 120.0 L59.35 124.4 68.15 124.4 68.15 120.0 59.35 120.0" fill="#ffffff" fill-rule="evenodd" stroke="none"/>
    </g>
  </defs>
</svg>
